<svg width="18" height="24" viewBox="0 0 18 24" fill="none" xmlns="http://www.w3.org/2000/svg">
<path d="M9 18V15L12.9844 18.9844L9 23.0156V20.0156C6.8125 20.0156 4.92188 19.2344 3.32812 17.6719C1.76562 16.0781 0.984375 14.1875 0.984375 12C0.984375 10.4375 1.40625 9.01562 2.25 7.73438L3.70312 9.1875C3.23438 10.0312 3 10.9688 3 12C3 13.6562 3.57812 15.0781 4.73438 16.2656C5.92188 17.4219 7.34375 18 9 18ZM9 3.98438C11.1875 3.98438 13.0625 4.78125 14.625 6.375C16.2188 7.9375 17.0156 9.8125 17.0156 12C17.0156 13.5625 16.5938 14.9844 15.75 16.2656L14.2969 14.8125C14.7656 13.9688 15 13.0312 15 12C15 10.3438 14.4062 8.9375 13.2188 7.78125C12.0625 6.59375 10.6562 6 9 6V9L5.01562 5.01562L9 0.984375V3.98438Z" fill="black" fill-opacity="0.5"/>
</svg>
